<?xml version="1.0" encoding="UTF-8"?>
<svg width="1651px" height="487px" viewBox="0 0 1651 487" version="1.1" xmlns="http://www.w3.org/2000/svg" xmlns:xlink="http://www.w3.org/1999/xlink">
    <!-- Generator: Sketch 42 (36781) - http://www.bohemiancoding.com/sketch -->
    <title>header-artwork-43cfbe0c554a63057a19e57b37d0d812</title>
    <desc>Created with Sketch.</desc>
    <defs>
        <polyline id="path-1" points="0 0.142297189 168.987288 0.142297189 168.987288 43.0200803 0 43.0200803"></polyline>
        <polyline id="path-3" points="-6.82121026e-13 0.868123159 160.925987 0.868123159 160.925987 287.903614 -6.82121026e-13 287.903614"></polyline>
        <polyline id="path-5" points="-1.30739863e-12 0.868123159 160.925987 0.868123159 160.925987 287.903614 -1.30739863e-12 287.903614"></polyline>
    </defs>
    <g id="Page-1" stroke="none" stroke-width="1" fill="none" fill-rule="evenodd">
        <g id="header-artwork-43cfbe0c554a63057a19e57b37d0d812" transform="translate(826.000000, 239.000000) rotate(-180.000000) translate(-826.000000, -239.000000) translate(2.000000, 1.000000)">
            <g id="Artboard-17">
                <g id="Welcome">
                    <g id="Artboard-17">
                        <g id="Group">
                            <g id="Group-2" transform="translate(0.000000, 8.824632)">
                                <g id="Page-1" transform="translate(405.933066, 14.340027)" stroke="#0054bf" stroke-width="3.114" stroke-linecap="round" stroke-linejoin="round">
                                    <polygon id="Stroke-1" points="92.6608407 99.4941944 87.5061526 104.647779 64.3392878 81.4798115 69.4928728 76.3273296"></polygon>
                                    <polygon id="Stroke-2" points="101.757933 90.3980948 96.6021419 95.5516798 62.8379973 61.7864321 67.9926854 56.6328471"></polygon>
                                    <polygon id="Stroke-3" points="111.728002 80.4261505 106.574417 85.5819416 90.9978388 70.0042602 96.1514238 64.8495722"></polygon>
                                    <polygon id="Stroke-4" points="121.767455 70.3875802 116.61387 75.5411652 97.4666249 56.3950233 102.621313 51.2414383"></polygon>
                                    <path d="M79.624212,112.530713 L130.559987,61.5949376" id="Stroke-5"></path>
                                    <path d="M130.560318,61.594717 L95.8375979,26.8708937" id="Stroke-6"></path>
                                    <path d="M92.1986506,30.5108337 L99.173419,23.5360653" id="Stroke-7"></path>
                                    <path d="M75.5307963,108.437297 L83.7178485,116.624349" id="Stroke-8"></path>
                                    <g id="Group-15">
                                        <polyline id="Stroke-9" points="92.0513896 135.06419 65.6955234 108.70722 39.6727871 134.73106"></polyline>
                                        <polyline id="Stroke-11" points="39.9699566 134.434552 0.614304685 95.0811063 95.0135979 0.681813119 160.724013 66.390022 92.0518308 135.06441"></polyline>
                                        <path d="M39.6725665,134.730729 L91.7158329,134.730729" id="Stroke-13"></path>
                                    </g>
                                </g>
                                <g id="Page-1" transform="translate(103.689424, 7.721553)">
                                    <path d="M1.71760428,41.302476 C40.316544,2.70353628 55.2809135,7.89131673 98.1233981,7.89131673 L161.629861,7.89131673" id="Stroke-1" stroke="#0054bf" stroke-width="3.114" stroke-linecap="round"></path>
                                    <g id="Group-5">
                                        <g id="Fill-3-Clipped">
                                            <mask id="mask-2" fill="white">
                                                <use xlink:href="#path-1"></use>
                                            </mask>
                                            <g id="path-1"></g>
                                            <path d="M161.238268,15.640226 C165.517112,15.640226 168.987398,12.1699395 168.987398,7.89109612 C168.987398,3.61225274 165.517112,0.141966265 161.238268,0.141966265 C156.959425,0.141966265 153.489138,3.61225274 153.489138,7.89109612 C153.489138,12.1699395 156.959425,15.640226 161.238268,15.640226" id="Fill-3" fill="#0054bf" fill-rule="nonzero" mask="url(#mask-2)"></path>
                                        </g>
                                    </g>
                                </g>
                                <g id="Page-1" transform="translate(0.000000, 66.184739)">
                                    <path d="M176.160059,171.016512 L83.4164873,256.881283 C57.6209853,282.677888 66.8217671,310.833979 66.8217671,399.802814" id="Stroke-1" stroke="#0054bf" stroke-width="3.114" stroke-linecap="round"></path>
                                    <path d="M126.668766,132.458386 L41.3522249,211.44546 C-5.00136011,257.800148 0.852680054,293.310466 0.852680054,352.623023" id="Stroke-3" stroke="#0054bf" stroke-width="3.114" stroke-linecap="round"></path>
                                    <path d="M203.653751,72.2716391 L238.765858,39.7627984 C242.605676,36.209781 242.83622,30.2156498 239.280996,26.3769349 C235.726876,22.537117 229.733847,22.3054704 225.894029,25.860694 L148.364123,97.6402495" id="Stroke-5" stroke="#0054bf" stroke-width="3.114" stroke-linecap="round"></path>
                                    <path d="M218.042313,84.7690827 L271.115855,35.6335325 C274.95457,32.078309 275.185114,26.0852809 271.630993,22.2454629 C268.076873,18.405645 262.083845,18.1762046 258.24513,21.730325 L203.653751,72.2711979" id="Stroke-7" stroke="#0054bf" stroke-width="3.114" stroke-linecap="round"></path>
                                    <path d="M235.890572,94.0649499 L294.43318,39.8662672 C298.270792,36.3121467 298.502439,30.3169124 294.947215,26.4781976 C291.393095,22.6394827 285.400066,22.4089392 281.560248,25.9630597 L223.019847,80.1617424" id="Stroke-9" stroke="#0054bf" stroke-width="3.114" stroke-linecap="round"></path>
                                    <path d="M246.363866,110.18667 L289.907909,69.8724423 C293.746624,66.3183218 293.977167,60.3252937 290.421944,56.4876819 C286.868926,52.647864 280.875898,52.4162174 277.037183,55.971441 L229.823197,99.6820487" id="Stroke-11" stroke="#0054bf" stroke-width="3.114" stroke-linecap="round"></path>
                                    <path d="M126.778412,132.576857 C141.664463,118.793885 130.642497,114.187427 148.175938,97.9556198" id="Stroke-13" stroke="#0054bf" stroke-width="3.114" stroke-linecap="round"></path>
                                    <path d="M176.160059,171.016512 C191.047213,157.234643 200.028482,174.23309 217.561922,158.00018" id="Stroke-15" stroke="#0054bf" stroke-width="3.114" stroke-linecap="round"></path>
                                    <path d="M167.120547,139.068256 C167.120547,139.068256 171.849447,131.086376 188.494909,129.544272" id="Stroke-17" stroke="#0054bf" stroke-width="3.114" stroke-linecap="round"></path>
                                    <path d="M165.516009,122.203171 L175.143682,132.603" id="Stroke-19" stroke="#0054bf" stroke-width="3.114" stroke-linecap="round"></path>
                                    <path d="M71.423261,207.773641 L132.915502,150.540388" id="Stroke-21" stroke="#0054bf" stroke-width="3.114" stroke-linecap="round"></path>
                                    <path d="M132.470961,0.127074699 C135.471336,12.5212701 147.683523,21.2874388 160.175893,22.8317494 C163.554624,23.3877012 166.966447,24.529388 169.826731,26.4266838 C172.687015,28.3228766 174.996862,30.9757815 176.169435,34.5530667 C177.323256,37.742068 177.508573,41.1902929 176.746345,44.4543036 C175.983015,47.7183143 174.26883,50.7970078 171.62475,53.2458431 C168.980669,55.6946784 165.779534,57.1650827 162.465885,57.6747052 C159.153339,58.1843277 155.729382,57.7331684 152.635245,56.345495 C132.634217,47.5076262 127.638372,22.6431229 132.27351,2.840649 C132.380509,1.08565033 132.470961,0.127074699 132.470961,0.127074699" id="Fill-23" fill="#E8E9E7" fill-rule="nonzero"></path>
                                    <path d="M132.470961,0.127074699 C135.471336,12.5212701 147.683523,21.2874388 160.175893,22.8317494 C163.554624,23.3877012 166.966447,24.529388 169.826731,26.4266838 C172.687015,28.3228766 174.996862,30.9757815 176.169435,34.5530667 C177.323256,37.742068 177.508573,41.1902929 176.746345,44.4543036 C175.983015,47.7183143 174.26883,50.7970078 171.62475,53.2458431 C168.980669,55.6946784 165.779534,57.1650827 162.465885,57.6747052 C159.153339,58.1843277 155.729382,57.7331684 152.635245,56.345495 C132.634217,47.5076262 127.638372,22.6431229 132.27351,2.840649 C132.380509,1.08565033 132.470961,0.127074699 132.470961,0.127074699 L132.470961,0.127074699 Z" id="Stroke-25" stroke="#0054bf" stroke-width="3.114" stroke-linecap="round"></path>
                                    <path d="M182.403376,49.4365805 C183.015584,50.0973248 182.975874,51.1298067 182.315129,51.7420155 L169.304313,63.7887411 C168.643568,64.3998469 167.609983,64.360136 166.997775,63.6993917 L165.030985,61.5748616 C164.418776,60.9130142 164.458487,59.8805323 165.120334,59.2683234 L178.131151,47.2215979 C178.791895,46.609389 179.82548,46.6502029 180.436586,47.3109473 L182.403376,49.4365805 L182.403376,49.4365805 Z" id="Stroke-27" stroke="#0054bf" stroke-width="3.114" stroke-linecap="round"></path>
                                    <path d="M181.713179,54.5803481 L257.190255,135.925805 C258.077131,136.811577 256.916692,139.27034 254.634421,141.381633 C252.354357,143.494029 249.813966,144.460327 248.961286,143.540359 L173.526127,62.1596037" id="Stroke-29" stroke="#0054bf" stroke-width="3.114" stroke-linecap="round"></path>
                                    <path d="M132.470961,0.127074699 C135.471336,12.5212701 147.683523,21.2874388 160.175893,22.8317494 C163.554624,23.3877012 166.966447,24.529388 169.826731,26.4266838 C172.687015,28.3228766 174.996862,30.9757815 176.169435,34.5530667 C177.323256,37.742068 177.508573,41.1902929 176.746345,44.4543036 C175.983015,47.7183143 174.26883,50.7970078 171.62475,53.2458431 C168.980669,55.6946784 165.779534,57.1650827 162.465885,57.6747052 C159.153339,58.1843277 155.729382,57.7331684 152.635245,56.345495 C132.634217,47.5076262 127.638372,22.6431229 132.27351,2.840649 C132.380509,1.08565033 132.470961,0.127074699 132.470961,0.127074699" id="Fill-31" fill="#0070FF" fill-rule="nonzero"></path>
                                    <path d="M132.470961,0.127074699 C135.471336,12.5212701 147.683523,21.2874388 160.175893,22.8317494 C163.554624,23.3877012 166.966447,24.529388 169.826731,26.4266838 C172.687015,28.3228766 174.996862,30.9757815 176.169435,34.5530667 C177.323256,37.742068 177.508573,41.1902929 176.746345,44.4543036 C175.983015,47.7183143 174.26883,50.7970078 171.62475,53.2458431 C168.980669,55.6946784 165.779534,57.1650827 162.465885,57.6747052 C159.153339,58.1843277 155.729382,57.7331684 152.635245,56.345495 C132.634217,47.5076262 127.638372,22.6431229 132.27351,2.840649 C132.380509,1.08565033 132.470961,0.127074699 132.470961,0.127074699 L132.470961,0.127074699 Z" id="Stroke-33" stroke="#0054bf" stroke-width="3.114" stroke-linecap="round"></path>
                                    <g id="Group-38" transform="translate(210.688086, 109.204819)">
                                        <path d="M0.12177992,19.3927904 C4.59366212,15.2529349 6.07068487,20.8797408 11.3367839,16.0030286 L25.1704975,3.19517858 C29.4063207,-0.726267202 36.0181762,-0.472559036 39.939622,3.76436734 C43.8610677,8.00019063 43.6062565,14.6120461 39.3704332,18.5334918 L5.16064471,50.2084048" id="Fill-35" fill="#0070FF" fill-rule="nonzero"></path>
                                        <path d="M0.12177992,19.3927904 C4.59366212,15.2529349 6.07068487,20.8797408 11.3367839,16.0030286 L25.1704975,3.19517858 C29.4063207,-0.726267202 36.0181762,-0.472559036 39.939622,3.76436734 C43.8610677,8.00019063 43.6062565,14.6120461 39.3704332,18.5334918 L5.16064471,50.2084048" id="Stroke-37" stroke="#0054bf" stroke-width="3.114" stroke-linecap="round"></path>
                                    </g>
                                </g>
                                <g id="Page-1" transform="translate(689.424364, 220.615797)" stroke="#0054bf" stroke-width="3.114" stroke-linecap="round">
                                    <path d="M0.686387574,30.1984857 L30.053872,0.831001229" id="Stroke-1"></path>
                                    <path d="M30.0542388,0.830634422 L71.3392822,42.1156778 C71.3392822,42.1156778 82.0757227,51.837897 71.2604187,61.0062376 C65.401594,65.9718873 51.9315245,57.610522 58.0947988,49.5902872 L28.6686254,80.5964819" id="Stroke-3"></path>
                                    <path d="M44.5850224,87.5872728 C40.5281372,92.4658057 36.9370968,93.1517348 32.3015735,90.8105892 C28.3244688,88.8014039 25.4349466,83.9063647 29.0608338,80.1236676" id="Stroke-5"></path>
                                    <path d="M0.510870431,30.3748281 C14.082729,42.7343895 26.1873596,55.8908391 38.9751681,68.8382087" id="Stroke-7"></path>
                                    <path d="M42.1573104,90.1573977 L72.8425489,59.4978357" id="Stroke-9"></path>
                                    <path d="M12.1240714,30.3748281 L28.9880226,13.5108768" id="Stroke-11"></path>
                                </g>
                                <g id="Page-1" transform="translate(861.441808, 241.476396) scale(-1, 1) rotate(45.000000) translate(-861.441808, -241.476396) translate(780.941808, 97.476396)">
                                    <path d="M159.208603,286.18601 L44.1784236,171.155831 C5.44380509,132.421212 7.74924016,114.575601 7.74924016,71.7320129 L7.74924016,8.22554967" id="Stroke-1" stroke="#0054bf" stroke-width="3.114" stroke-linecap="round"></path>
                                    <g id="Group-5" transform="translate(0.000000, -0.000000)">
                                        <g id="Fill-3-Clipped" transform="translate(-0.000000, -0.000000)">
                                            <mask id="mask-4" fill="white">
                                                <use xlink:href="#path-3"></use>
                                            </mask>
                                            <g id="path-3"></g>
                                            <path d="M15.4991422,8.61725301 C15.4991422,4.33840964 12.0288557,0.868123159 7.75001232,0.868123159 C3.47006586,0.868123159 -0.000220615796,4.33840964 -0.000220615796,8.61725301 C-0.000220615796,12.8960964 3.47006586,16.3663829 7.75001232,16.3663829 C12.0288557,16.3663829 15.4991422,12.8960964 15.4991422,8.61725301" id="Fill-3" fill="#0054bf" fill-rule="nonzero" mask="url(#mask-4)"></path>
                                        </g>
                                    </g>
                                </g>
                                <g id="Page-1" transform="translate(306.489960, 229.709505) rotate(90.000000) translate(-306.489960, -229.709505) translate(223.489960, 146.709505)" stroke="#0054bf" stroke-width="3.114" stroke-linecap="round">
                                    <path d="M95.2321178,70.6700198 C101.97524,77.4131416 101.97524,88.3457574 95.2321178,95.0899823 C88.488996,101.833104 77.5563802,101.833104 70.8132584,95.0899823 C64.0701365,88.3457574 64.0690335,77.4131416 70.8121553,70.6700198 C77.5563802,63.926898 88.488996,63.926898 95.2321178,70.6700198 L95.2321178,70.6700198 Z" id="Stroke-1"></path>
                                    <polyline id="Stroke-3" points="99.851261 86.7357033 158.270324 145.154766 145.297012 158.128078 86.8779491 99.7090153"></polyline>
                                    <polyline id="Stroke-5" points="66.1927914 79.0238576 7.43618635 20.2672525 20.4106013 7.29394056 78.6013269 65.4857692"></polyline>
                                    <polygon id="Stroke-7" points="20.4101601 7.29360964 7.43684819 20.2680246 0.222711647 13.0549912 13.1960236 0.0805761714"></polygon>
                                    <polygon id="Stroke-9" points="165.484461 152.368903 152.511149 165.342215 145.297012 158.128078 158.270324 145.154766"></polygon>
                                    <path d="M13.9231732,13.7805965 L10.316105,10.1735282" id="Stroke-11"></path>
                                    <path d="M83.0223572,82.880332 L74.9522313,74.8102062" id="Stroke-13"></path>
                                    <path d="M83.0223572,82.880332 L89.5084616,76.3931245" id="Stroke-15"></path>
                                    <path d="M145.276826,145.134249 L141.104981,140.963507" id="Stroke-17"></path>
                                    <path d="M135.7342,135.592175 L131.562355,131.421433" id="Stroke-19"></path>
                                    <path d="M126.192677,126.0501 L122.020832,121.878255" id="Stroke-21"></path>
                                    <path d="M61.9086533,74.7397194 L74.8819652,61.7664075" id="Stroke-23"></path>
                                    <path d="M91.1310908,103.961605 L104.104403,90.9882934" id="Stroke-25"></path>
                                </g>
                                <g id="Page-1" transform="translate(297.831325, 14.340027)" stroke="#0054bf" stroke-width="3.114" stroke-linecap="round" stroke-linejoin="round">
                                    <polyline id="Stroke-1" points="49.5884744 0.622688086 68.3838372 19.4191539 86.942038 0.859850067"></polyline>
                                    <polyline id="Stroke-3" points="86.7301365 1.07131031 114.795775 29.1358458 47.4759679 96.4567561 0.614966533 49.5957548 49.5883641 0.622357162"></polyline>
                                    <path d="M86.9423689,0.859629451 L49.8270704,0.859629451" id="Stroke-5"></path>
                                </g>
                                <g id="Page-1" transform="translate(589.044177, -0.000000)">
                                    <path d="M121.924202,152.265824 L214.667774,238.128389 C240.463276,263.926097 231.262494,292.082188 231.262494,381.051023" id="Stroke-1" stroke="#0054bf" stroke-width="3.114" stroke-linecap="round"></path>
                                    <path d="M171.415165,113.706595 L256.732809,192.693669 C303.08529,239.048357 297.232353,274.558675 297.232353,333.870129" id="Stroke-3" stroke="#0054bf" stroke-width="3.114" stroke-linecap="round"></path>
                                    <path d="M94.4301794,53.5198479 L59.3180723,21.0110072 C55.4782544,17.4579898 55.2477108,11.4638586 58.8029344,7.62514378 C62.3570549,3.78532584 68.350083,3.55367925 72.1899009,7.10890281 L149.719807,78.8884584" id="Stroke-5" stroke="#0054bf" stroke-width="3.114" stroke-linecap="round"></path>
                                    <path d="M80.0416171,66.01674 L26.969178,16.8811898 C23.1293601,13.3270693 22.8977135,7.33293815 26.4529371,3.49422329 C30.0081606,-0.345594645 36.0000857,-0.576138153 39.8399036,2.97908541 L94.4301794,53.5199582" id="Stroke-7" stroke="#0054bf" stroke-width="3.114" stroke-linecap="round"></path>
                                    <path d="M62.193027,75.3131588 L3.65262544,21.114476 C-0.187192503,17.5603556 -0.41883909,11.5651213 3.13638447,7.72640643 C6.69160803,3.88769157 12.6835331,3.65714806 16.5244541,7.21126854 L75.0648557,61.4099513" id="Stroke-9" stroke="#0054bf" stroke-width="3.114" stroke-linecap="round"></path>
                                    <path d="M51.7202849,91.4348787 L8.17624203,51.1206511 C4.33752718,47.5665307 4.10698367,41.5735025 7.66110415,37.7358908 C11.2152246,33.8960728 17.2093558,33.6644262 21.0469676,37.2196498 L68.2609542,80.9302576" id="Stroke-11" stroke="#0054bf" stroke-width="3.114" stroke-linecap="round"></path>
                                    <path d="M171.305298,113.825066 C156.42035,100.042094 167.441212,95.4356359 149.908875,79.2038286" id="Stroke-13" stroke="#0054bf" stroke-width="3.114" stroke-linecap="round"></path>
                                    <path d="M121.924202,152.265824 C107.037048,138.482852 98.0557794,155.482402 80.522339,139.248389" id="Stroke-15" stroke="#0054bf" stroke-width="3.114" stroke-linecap="round"></path>
                                    <path d="M130.964266,120.315362 C130.964266,120.315362 126.234263,112.334585 109.588801,110.792481" id="Stroke-17" stroke="#0054bf" stroke-width="3.114" stroke-linecap="round"></path>
                                    <path d="M132.568253,103.452483 L122.939476,113.852312" id="Stroke-19" stroke="#0054bf" stroke-width="3.114" stroke-linecap="round"></path>
                                    <path d="M237.691459,194.538348 L176.199218,137.303991" id="Stroke-21" stroke="#0054bf" stroke-width="3.114" stroke-linecap="round"></path>
                                    <g id="Group-26" transform="translate(44.123159, 90.452477)">
                                        <path d="M43.1510158,19.3943347 C38.6791336,15.2533762 37.2021108,20.879079 31.9371149,16.0034699 L18.1034013,3.19561981 C13.866475,-0.725825971 7.25461954,-0.472117805 3.33317376,3.76370549 C-0.587168942,7.99952878 -0.333460776,14.6113842 3.90236252,18.5339331 L38.1132541,50.207743" id="Fill-23" fill="#0070FF" fill-rule="nonzero"></path>
                                        <path d="M43.1510158,19.3943347 C38.6791336,15.2533762 37.2021108,20.879079 31.9371149,16.0034699 L18.1034013,3.19561981 C13.866475,-0.725825971 7.25461954,-0.472117805 3.33317376,3.76370549 C-0.587168942,7.99952878 -0.333460776,14.6113842 3.90236252,18.5339331 L38.1132541,50.207743" id="Stroke-25" stroke="#0054bf" stroke-width="3.114" stroke-linecap="round"></path>
                                    </g>
                                </g>
                                <g id="Page-1" transform="translate(345.263722, 206.275770)" stroke-linecap="round" stroke-width="3.114" stroke="#0054bf">
                                    <polygon id="Stroke-1" points="83.6454865 131.043467 0.222932262 47.6209124 47.7060701 0.137774565 131.128624 83.5603288"></polygon>
                                    <polyline id="Stroke-3" points="47.7059598 0.137884873 58.2160964 73.0503025 131.128514 83.5604391"></polyline>
                                    <path d="M0.928571888,46.9158244 L54.084845,46.9158244" id="Stroke-5"></path>
                                    <path d="M84.3511261,130.337276 L84.3511261,77.1810024" id="Stroke-7"></path>
                                </g>
                                <g id="Page-1" transform="translate(467.705489, 115.823293)" stroke="#0054bf" stroke-width="3.114" stroke-linecap="round" stroke-linejoin="round">
                                    <path d="M65.0375368,164.334501 C62.8843266,166.488814 59.3919786,166.488814 57.2387684,164.334501 L2.2304257,109.326158 C0.0761124498,107.172948 0.0761124498,103.6806 2.2304257,101.526286 L101.950972,1.80574029 C104.104182,-0.348572959 107.59653,-0.34746988 109.750843,1.80574029 L164.758083,56.814083 C166.912396,58.9683963 166.912396,62.4607443 164.758083,64.6150576 L65.0375368,164.334501 L65.0375368,164.334501 Z" id="Stroke-1"></path>
                                    <polygon id="Stroke-3" points="70.924559 145.967794 20.5965805 95.6398158 99.2218442 17.0145521 149.54872 67.3425307"></polygon>
                                    <path d="M124.845597,29.7298538 L137.363337,42.2486972" id="Stroke-5"></path>
                                    <path d="M41.2615518,131.700019 C43.0275813,129.93399 43.0275813,127.069294 41.2615518,125.302161 C39.4944193,123.537235 36.6308262,123.537235 34.8647968,125.302161 C33.0976643,127.0715 33.0976643,129.93399 34.8647968,131.701122 C36.6297232,133.467152 39.4944193,133.467152 41.2615518,131.700019 L41.2615518,131.700019 Z" id="Stroke-7"></path>
                                </g>
                                <g id="Page-1" transform="translate(639.700527, 241.235327) rotate(45.000000) translate(-639.700527, -241.235327) translate(631.700527, 159.235327)" stroke="#0054bf" stroke-width="3.114" stroke-linecap="round" stroke-linejoin="round">
                                    <polyline id="Stroke-1" points="15.1896717 22.6683735 15.1896717 143.338052 0.617201328 143.338052 0.617201328 22.6683735"></polyline>
                                    <polyline id="Stroke-3" points="15.1896717 22.6683735 7.90454519 0.989273836 0.617201328 22.6683735"></polyline>
                                    <path d="M0.617644799,22.6824537 C2.43809492,22.6824537 2.43809492,24.8998107 4.25743635,24.8998107 C6.0767778,24.8998107 6.0767778,22.6824537 7.89611923,22.6824537 C9.71989538,22.6824537 9.71989538,24.8998107 11.5425629,24.8998107 C13.366339,24.8998107 13.366339,22.6824537 15.1901151,22.6824537" id="Stroke-5"></path>
                                    <polyline id="Stroke-7" points="5.2504797 8.88672348 7.49111897 9.36456392 10.1763383 7.75254536 7.71285467 6.52191221 6.89021522 7.55520059"></polyline>
                                    <path d="M0.617644799,143.33783 L0.617644799,161.183119 C0.617644799,164.066792 15.1901151,164.384982 15.1901151,161.183119 L15.1901151,143.33783 L0.617644799,143.33783 L0.617644799,143.33783 Z" id="Stroke-9"></path>
                                    <path d="M0.617644799,147.858578 L15.0127266,147.858578" id="Stroke-11"></path>
                                    <path d="M0.617644799,152.481212 L15.0127266,152.481212" id="Stroke-13"></path>
                                    <path d="M7.71307641,22.6683735 L7.71307641,143.338052" id="Stroke-15"></path>
                                </g>
                                <path d="M432.362247,179.79689 L432.362247,205.204109 C432.362247,213.740837 440.093728,213.722085 440.093728,204.873185 L440.093728,178.527247 C440.093728,168.513496 427.889262,167.260398 427.889262,179.152692 L427.889262,204.960328" id="Page-1" stroke="#0054bf" stroke-width="3.114" stroke-linecap="round" stroke-linejoin="round" transform="translate(433.991495, 191.091217) rotate(135.000000) translate(-433.991495, -191.091217) "></path>
                            </g>
                            <g id="Group-2-Copy" transform="translate(839.443106, 22.061580)">
                                <g id="Page-1" transform="translate(108.101740, 3.309237)" stroke="#0054bf" stroke-width="3.114" stroke-linecap="round" stroke-linejoin="round">
                                    <polygon id="Stroke-1" points="92.6608407 99.4941944 87.5061526 104.647779 64.3392878 81.4798115 69.4928728 76.3273296"></polygon>
                                    <polygon id="Stroke-2" points="101.757933 90.3980948 96.6021419 95.5516798 62.8379973 61.7864321 67.9926854 56.6328471"></polygon>
                                    <polygon id="Stroke-3" points="111.728002 80.4261505 106.574417 85.5819416 90.9978388 70.0042602 96.1514238 64.8495722"></polygon>
                                    <polygon id="Stroke-4" points="121.767455 70.3875802 116.61387 75.5411652 97.4666249 56.3950233 102.621313 51.2414383"></polygon>
                                    <path d="M79.624212,112.530713 L130.559987,61.5949376" id="Stroke-5"></path>
                                    <path d="M130.560318,61.594717 L95.8375979,26.8708937" id="Stroke-6"></path>
                                    <path d="M92.1986506,30.5108337 L99.173419,23.5360653" id="Stroke-7"></path>
                                    <path d="M75.5307963,108.437297 L83.7178485,116.624349" id="Stroke-8"></path>
                                    <g id="Group-15">
                                        <polyline id="Stroke-9" points="92.0513896 135.06419 65.6955234 108.70722 39.6727871 134.73106"></polyline>
                                        <polyline id="Stroke-11" points="39.9699566 134.434552 0.614304685 95.0811063 95.0135979 0.681813119 160.724013 66.390022 92.0518308 135.06441"></polyline>
                                        <path d="M39.6725665,134.730729 L91.7158329,134.730729" id="Stroke-13"></path>
                                    </g>
                                </g>
                                <g id="Page-1" transform="translate(391.593039, 209.585007)" stroke="#0054bf" stroke-width="3.114" stroke-linecap="round">
                                    <path d="M0.686387574,30.1984857 L30.053872,0.831001229" id="Stroke-1"></path>
                                    <path d="M30.0542388,0.830634422 L71.3392822,42.1156778 C71.3392822,42.1156778 82.0757227,51.837897 71.2604187,61.0062376 C65.401594,65.9718873 51.9315245,57.610522 58.0947988,49.5902872 L28.6686254,80.5964819" id="Stroke-3"></path>
                                    <path d="M0.510870431,30.3748281 C14.082729,42.7343895 26.1873596,55.8908391 38.9751681,68.8382087" id="Stroke-7"></path>
                                    <path d="M42.1573104,90.1573977 L72.8425489,59.4978357" id="Stroke-9"></path>
                                    <path d="M12.1240714,30.3748281 L28.9880226,13.5108768" id="Stroke-11"></path>
                                </g>
                                <g id="Page-1" transform="translate(634.207538, 158.745472) scale(-1, 1) rotate(45.000000) translate(-634.207538, -158.745472) translate(553.707538, 14.745472)">
                                    <path d="M159.208603,286.18601 L44.1784236,171.155831 C5.44380509,132.421212 7.74924016,114.575601 7.74924016,71.7320129 L7.74924016,8.22554967" id="Stroke-1" stroke="#0054bf" stroke-width="3.114" stroke-linecap="round"></path>
                                    <g id="Group-5" transform="translate(-0.000000, -0.000000)">
                                        <g id="Fill-3-Clipped" transform="translate(-0.000000, -0.000000)">
                                            <mask id="mask-6" fill="white">
                                                <use xlink:href="#path-5"></use>
                                            </mask>
                                            <g id="path-5"></g>
                                            <path d="M15.4991422,8.61725301 C15.4991422,4.33840964 12.0288557,0.868123159 7.75001232,0.868123159 C3.47006586,0.868123159 -0.000220615796,4.33840964 -0.000220615796,8.61725301 C-0.000220615796,12.8960964 3.47006586,16.3663829 7.75001232,16.3663829 C12.0288557,16.3663829 15.4991422,12.8960964 15.4991422,8.61725301" id="Fill-3" fill="#0054bf" fill-rule="nonzero" mask="url(#mask-6)"></path>
                                        </g>
                                    </g>
                                </g>
                                <g id="Page-1" transform="translate(0.000000, 3.309237)" stroke="#0054bf" stroke-width="3.114" stroke-linecap="round" stroke-linejoin="round">
                                    <polyline id="Stroke-1" points="49.5884744 0.622688086 68.3838372 19.4191539 86.942038 0.859850067"></polyline>
                                    <polyline id="Stroke-3" points="86.7301365 1.07131031 114.795775 29.1358458 47.4759679 96.4567561 0.614966533 49.5957548 49.5883641 0.622357162"></polyline>
                                    <path d="M86.9423689,0.859629451 L49.8270704,0.859629451" id="Stroke-5"></path>
                                </g>
                                <g id="Page-1" transform="translate(47.432396, 195.244980)" stroke-linecap="round" stroke-width="3.114" stroke="#0054bf">
                                    <polygon id="Stroke-1" points="83.6454865 131.043467 0.222932262 47.6209124 47.7060701 0.137774565 131.128624 83.5603288"></polygon>
                                    <polyline id="Stroke-3" points="47.7059598 0.137884873 58.2160964 73.0503025 131.128514 83.5604391"></polyline>
                                    <path d="M0.928571888,46.9158244 L54.084845,46.9158244" id="Stroke-5"></path>
                                    <path d="M84.3511261,130.337276 L84.3511261,77.1810024" id="Stroke-7"></path>
                                </g>
                                <g id="Page-1" transform="translate(169.874163, 104.792503)" stroke="#0054bf" stroke-width="3.114" stroke-linecap="round" stroke-linejoin="round">
                                    <path d="M65.0375368,164.334501 C62.8843266,166.488814 59.3919786,166.488814 57.2387684,164.334501 L2.2304257,109.326158 C0.0761124498,107.172948 0.0761124498,103.6806 2.2304257,101.526286 L101.950972,1.80574029 C104.104182,-0.348572959 107.59653,-0.34746988 109.750843,1.80574029 L164.758083,56.814083 C166.912396,58.9683963 166.912396,62.4607443 164.758083,64.6150576 L65.0375368,164.334501 L65.0375368,164.334501 Z" id="Stroke-1"></path>
                                    <polygon id="Stroke-3" points="70.924559 145.967794 20.5965805 95.6398158 99.2218442 17.0145521 149.54872 67.3425307"></polygon>
                                    <path d="M124.845597,29.7298538 L137.363337,42.2486972" id="Stroke-5"></path>
                                    <path d="M41.2615518,131.700019 C43.0275813,129.93399 43.0275813,127.069294 41.2615518,125.302161 C39.4944193,123.537235 36.6308262,123.537235 34.8647968,125.302161 C33.0976643,127.0715 33.0976643,129.93399 34.8647968,131.701122 C36.6297232,133.467152 39.4944193,133.467152 41.2615518,131.700019 L41.2615518,131.700019 Z" id="Stroke-7"></path>
                                </g>
                                <g id="Page-1" transform="translate(341.869202, 230.204537) rotate(45.000000) translate(-341.869202, -230.204537) translate(333.869202, 148.204537)" stroke="#0054bf" stroke-width="3.114" stroke-linecap="round" stroke-linejoin="round">
                                    <polyline id="Stroke-1" points="15.1896717 22.6683735 15.1896717 143.338052 0.617201328 143.338052 0.617201328 22.6683735"></polyline>
                                    <polyline id="Stroke-3" points="15.1896717 22.6683735 7.90454519 0.989273836 0.617201328 22.6683735"></polyline>
                                    <path d="M0.617644799,22.6824537 C2.43809492,22.6824537 2.43809492,24.8998107 4.25743635,24.8998107 C6.0767778,24.8998107 6.0767778,22.6824537 7.89611923,22.6824537 C9.71989538,22.6824537 9.71989538,24.8998107 11.5425629,24.8998107 C13.366339,24.8998107 13.366339,22.6824537 15.1901151,22.6824537" id="Stroke-5"></path>
                                    <polyline id="Stroke-7" points="5.2504797 8.88672348 7.49111897 9.36456392 10.1763383 7.75254536 7.71285467 6.52191221 6.89021522 7.55520059"></polyline>
                                    <path d="M0.617644799,143.33783 L0.617644799,161.183119 C0.617644799,164.066792 15.1901151,164.384982 15.1901151,161.183119 L15.1901151,143.33783 L0.617644799,143.33783 L0.617644799,143.33783 Z" id="Stroke-9"></path>
                                    <path d="M0.617644799,147.858578 L15.0127266,147.858578" id="Stroke-11"></path>
                                    <path d="M0.617644799,152.481212 L15.0127266,152.481212" id="Stroke-13"></path>
                                    <path d="M7.71307641,22.6683735 L7.71307641,143.338052" id="Stroke-15"></path>
                                </g>
                                <path d="M134.530922,168.766101 L134.530922,194.173319 C134.530922,202.710047 142.262403,202.691295 142.262403,193.842395 L142.262403,167.496457 C142.262403,157.482706 130.057937,156.229608 130.057937,168.121903 L130.057937,193.929538" id="Page-1" stroke="#0054bf" stroke-width="3.114" stroke-linecap="round" stroke-linejoin="round" transform="translate(136.160170, 180.060428) rotate(135.000000) translate(-136.160170, -180.060428) "></path>
                            </g>
                            <g id="Page-1" transform="translate(1370.063355, 91.908031) rotate(-90.000000) translate(-1370.063355, -91.908031) translate(1301.563355, 23.408031)" stroke="#0054bf" stroke-width="3.114" stroke-linecap="round" stroke-linejoin="round">
                                <path d="M53.4355802,135.019096 C51.6664782,136.789104 48.7971253,136.789104 47.0280234,135.019096 L1.83254314,89.8236152 C0.0625348547,88.0545132 0.0625348547,85.1851604 1.83254314,83.4151521 L83.7640784,1.48361677 C85.5331805,-0.286391508 88.4025333,-0.285485206 90.1725416,1.48361677 L135.367116,46.679097 C137.137124,48.4491053 137.137124,51.3184581 135.367116,53.0884665 L53.4355802,135.019096 L53.4355802,135.019096 Z" id="Stroke-1"></path>
                                <polygon id="Stroke-3" points="58.2724247 119.928801 16.9223849 78.5787608 81.521796 13.9793496 122.87093 55.3293893"></polygon>
                                <path d="M102.574563,24.4263862 L112.85928,34.7120103" id="Stroke-5"></path>
                                <path d="M33.9009605,108.206234 C35.3519503,106.755244 35.3519503,104.401577 33.9009605,102.949681 C32.4490642,101.499598 30.0963036,101.499598 28.6453137,102.949681 C27.1934176,104.40339 27.1934176,106.755244 28.6453137,108.207141 C30.0953973,109.65813 32.4490642,109.65813 33.9009605,108.206234 L33.9009605,108.206234 Z" id="Stroke-7"></path>
                            </g>
                            <g id="Page-1" transform="translate(1568.500000, 99.198795) rotate(-180.000000) translate(-1568.500000, -99.198795) translate(1489.000000, 19.698795)" stroke="#0054bf" stroke-width="3.114" stroke-linecap="round">
                                <path d="M88.6136439,63.9484669 C95.3567657,70.6915888 95.3567657,81.6242046 88.6136439,88.3684295 C81.8705221,95.1115513 70.9379063,95.1115513 64.1947845,88.3684295 C57.4516627,81.6242046 57.4505596,70.6915888 64.1936814,63.9484669 C70.9379063,57.2053451 81.8705221,57.2053451 88.6136439,63.9484669 L88.6136439,63.9484669 Z" id="Stroke-1"></path>
                                <polyline id="Stroke-3" points="93.2327871 80.0141505 151.65185 138.433213 138.678538 151.406525 80.2594752 92.9874624"></polyline>
                                <polyline id="Stroke-5" points="59.5743175 72.3023047 0.81771245 13.5456996 13.7921274 0.572387684 71.982853 58.7642163"></polyline>
                                <polygon id="Stroke-9" points="158.865987 145.64735 145.892675 158.620662 138.678538 151.406525 151.65185 138.433213"></polygon>
                                <path d="M76.4038833,76.1587791 L68.3337574,68.0886533" id="Stroke-13"></path>
                                <path d="M76.4038833,76.1587791 L82.8899877,69.6715716" id="Stroke-15"></path>
                                <path d="M138.658352,138.412696 L134.486507,134.241954" id="Stroke-17"></path>
                                <path d="M129.115726,128.870622 L124.943881,124.69988" id="Stroke-19"></path>
                                <path d="M119.574203,119.328547 L115.402358,115.156703" id="Stroke-21"></path>
                                <path d="M55.2901794,68.0181665 L68.2634913,55.0448546" id="Stroke-23"></path>
                                <path d="M84.5126169,97.2400525 L97.4859288,84.2667406" id="Stroke-25"></path>
                            </g>
                            <path d="M1444.76563,168.989 L1444.76563,194.396218 C1444.76563,202.932946 1452.49711,202.914194 1452.49711,194.065294 L1452.49711,167.719356 C1452.49711,157.705605 1440.29265,156.452507 1440.29265,168.344802 L1440.29265,194.152437" id="Page-1" stroke="#0054bf" stroke-width="3.114" stroke-linecap="round" stroke-linejoin="round" transform="translate(1446.394881, 180.283327) rotate(-135.000000) translate(-1446.394881, -180.283327) "></path>
                            <g id="Page-1" transform="translate(1277.281124, 200.000000) scale(-1, 1) translate(-1277.281124, -200.000000) translate(1128.281124, -0.000000)">
                                <path d="M176.160059,171.016512 L83.4164873,256.881283 C57.6209853,282.677888 66.8217671,310.833979 66.8217671,399.802814" id="Stroke-1" stroke="#0054bf" stroke-width="3.114" stroke-linecap="round"></path>
                                <path d="M126.668766,132.458386 L41.3522249,211.44546 C-5.00136011,257.800148 0.852680054,293.310466 0.852680054,352.623023" id="Stroke-3" stroke="#0054bf" stroke-width="3.114" stroke-linecap="round"></path>
                                <path d="M203.653751,72.2716391 L238.765858,39.7627984 C242.605676,36.209781 242.83622,30.2156498 239.280996,26.3769349 C235.726876,22.537117 229.733847,22.3054704 225.894029,25.860694 L148.364123,97.6402495" id="Stroke-5" stroke="#0054bf" stroke-width="3.114" stroke-linecap="round"></path>
                                <path d="M218.042313,84.7690827 L271.115855,35.6335325 C274.95457,32.078309 275.185114,26.0852809 271.630993,22.2454629 C268.076873,18.405645 262.083845,18.1762046 258.24513,21.730325 L203.653751,72.2711979" id="Stroke-7" stroke="#0054bf" stroke-width="3.114" stroke-linecap="round"></path>
                                <path d="M235.890572,94.0649499 L294.43318,39.8662672 C298.270792,36.3121467 298.502439,30.3169124 294.947215,26.4781976 C291.393095,22.6394827 285.400066,22.4089392 281.560248,25.9630597 L223.019847,80.1617424" id="Stroke-9" stroke="#0054bf" stroke-width="3.114" stroke-linecap="round"></path>
                                <path d="M246.363866,110.18667 L289.907909,69.8724423 C293.746624,66.3183218 293.977167,60.3252937 290.421944,56.4876819 C286.868926,52.647864 280.875898,52.4162174 277.037183,55.971441 L229.823197,99.6820487" id="Stroke-11" stroke="#0054bf" stroke-width="3.114" stroke-linecap="round"></path>
                                <path d="M126.778412,132.576857 C141.664463,118.793885 130.642497,114.187427 148.175938,97.9556198" id="Stroke-13" stroke="#0054bf" stroke-width="3.114" stroke-linecap="round"></path>
                                <path d="M176.160059,171.016512 C191.047213,157.234643 200.028482,174.23309 217.561922,158.00018" id="Stroke-15" stroke="#0054bf" stroke-width="3.114" stroke-linecap="round"></path>
                                <path d="M167.120547,139.068256 C167.120547,139.068256 171.849447,131.086376 188.494909,129.544272" id="Stroke-17" stroke="#0054bf" stroke-width="3.114" stroke-linecap="round"></path>
                                <path d="M165.516009,122.203171 L175.143682,132.603" id="Stroke-19" stroke="#0054bf" stroke-width="3.114" stroke-linecap="round"></path>
                                <path d="M71.423261,207.773641 L132.915502,150.540388" id="Stroke-21" stroke="#0054bf" stroke-width="3.114" stroke-linecap="round"></path>
                                <path d="M132.470961,0.127074699 C135.471336,12.5212701 147.683523,21.2874388 160.175893,22.8317494 C163.554624,23.3877012 166.966447,24.529388 169.826731,26.4266838 C172.687015,28.3228766 174.996862,30.9757815 176.169435,34.5530667 C177.323256,37.742068 177.508573,41.1902929 176.746345,44.4543036 C175.983015,47.7183143 174.26883,50.7970078 171.62475,53.2458431 C168.980669,55.6946784 165.779534,57.1650827 162.465885,57.6747052 C159.153339,58.1843277 155.729382,57.7331684 152.635245,56.345495 C132.634217,47.5076262 127.638372,22.6431229 132.27351,2.840649 C132.380509,1.08565033 132.470961,0.127074699 132.470961,0.127074699" id="Fill-23" fill="#E8E9E7" fill-rule="nonzero"></path>
                                <path d="M132.470961,0.127074699 C135.471336,12.5212701 147.683523,21.2874388 160.175893,22.8317494 C163.554624,23.3877012 166.966447,24.529388 169.826731,26.4266838 C172.687015,28.3228766 174.996862,30.9757815 176.169435,34.5530667 C177.323256,37.742068 177.508573,41.1902929 176.746345,44.4543036 C175.983015,47.7183143 174.26883,50.7970078 171.62475,53.2458431 C168.980669,55.6946784 165.779534,57.1650827 162.465885,57.6747052 C159.153339,58.1843277 155.729382,57.7331684 152.635245,56.345495 C132.634217,47.5076262 127.638372,22.6431229 132.27351,2.840649 C132.380509,1.08565033 132.470961,0.127074699 132.470961,0.127074699 L132.470961,0.127074699 Z" id="Stroke-25" stroke="#0054bf" stroke-width="3.114" stroke-linecap="round"></path>
                                <path d="M182.403376,49.4365805 C183.015584,50.0973248 182.975874,51.1298067 182.315129,51.7420155 L169.304313,63.7887411 C168.643568,64.3998469 167.609983,64.360136 166.997775,63.6993917 L165.030985,61.5748616 C164.418776,60.9130142 164.458487,59.8805323 165.120334,59.2683234 L178.131151,47.2215979 C178.791895,46.609389 179.82548,46.6502029 180.436586,47.3109473 L182.403376,49.4365805 L182.403376,49.4365805 Z" id="Stroke-27" stroke="#0054bf" stroke-width="3.114" stroke-linecap="round"></path>
                                <path d="M181.713179,54.5803481 L257.190255,135.925805 C258.077131,136.811577 256.916692,139.27034 254.634421,141.381633 C252.354357,143.494029 249.813966,144.460327 248.961286,143.540359 L173.526127,62.1596037" id="Stroke-29" stroke="#0054bf" stroke-width="3.114" stroke-linecap="round"></path>
                                <path d="M132.470961,0.127074699 C135.471336,12.5212701 147.683523,21.2874388 160.175893,22.8317494 C163.554624,23.3877012 166.966447,24.529388 169.826731,26.4266838 C172.687015,28.3228766 174.996862,30.9757815 176.169435,34.5530667 C177.323256,37.742068 177.508573,41.1902929 176.746345,44.4543036 C175.983015,47.7183143 174.26883,50.7970078 171.62475,53.2458431 C168.980669,55.6946784 165.779534,57.1650827 162.465885,57.6747052 C159.153339,58.1843277 155.729382,57.7331684 152.635245,56.345495 C132.634217,47.5076262 127.638372,22.6431229 132.27351,2.840649 C132.380509,1.08565033 132.470961,0.127074699 132.470961,0.127074699" id="Fill-31" fill="#0070FF" fill-rule="nonzero"></path>
                                <path d="M132.470961,0.127074699 C135.471336,12.5212701 147.683523,21.2874388 160.175893,22.8317494 C163.554624,23.3877012 166.966447,24.529388 169.826731,26.4266838 C172.687015,28.3228766 174.996862,30.9757815 176.169435,34.5530667 C177.323256,37.742068 177.508573,41.1902929 176.746345,44.4543036 C175.983015,47.7183143 174.26883,50.7970078 171.62475,53.2458431 C168.980669,55.6946784 165.779534,57.1650827 162.465885,57.6747052 C159.153339,58.1843277 155.729382,57.7331684 152.635245,56.345495 C132.634217,47.5076262 127.638372,22.6431229 132.27351,2.840649 C132.380509,1.08565033 132.470961,0.127074699 132.470961,0.127074699 L132.470961,0.127074699 Z" id="Stroke-33" stroke="#0054bf" stroke-width="3.114" stroke-linecap="round"></path>
                                <g id="Group-38" transform="translate(210.688086, 109.204819)">
                                    <path d="M0.12177992,19.3927904 C4.59366212,15.2529349 6.07068487,20.8797408 11.3367839,16.0030286 L25.1704975,3.19517858 C29.4063207,-0.726267202 36.0181762,-0.472559036 39.939622,3.76436734 C43.8610677,8.00019063 43.6062565,14.6120461 39.3704332,18.5334918 L5.16064471,50.2084048" id="Fill-35" fill="#0070FF" fill-rule="nonzero"></path>
                                    <path d="M0.12177992,19.3927904 C4.59366212,15.2529349 6.07068487,20.8797408 11.3367839,16.0030286 L25.1704975,3.19517858 C29.4063207,-0.726267202 36.0181762,-0.472559036 39.939622,3.76436734 C43.8610677,8.00019063 43.6062565,14.6120461 39.3704332,18.5334918 L5.16064471,50.2084048" id="Stroke-37" stroke="#0054bf" stroke-width="3.114" stroke-linecap="round"></path>
                                </g>
                            </g>
                        </g>
                    </g>
                </g>
            </g>
        </g>
    </g>
</svg>
